<svg width="140" height="48" viewBox="0 0 140 48" fill="none" xmlns="http://www.w3.org/2000/svg">
<g clip-path="url(#clip0_28_3524)">
<path d="M45.7814 13.8205C41.7385 17.953 40.9122 18.837 35.5807 24.2917C34.9195 24.9674 34.0526 25.8815 33.0923 25.7232C32.333 25.5979 31.8264 24.8515 31.0935 23.3125C29.4352 19.8312 28.8749 17.97 27.5543 14.9222C26.4808 12.4399 24.5952 12.1345 22.8115 14.1372C21.5739 15.5244 20.4429 17.0059 19.1968 18.3846C17.6706 20.0715 15.9642 19.9302 14.7784 18.0039C12.44 14.2041 10.1837 10.3515 7.82738 6.56203C7.78871 6.49889 7.75192 6.43669 7.71796 6.37543C7.88681 6.21899 8.05849 6.0635 8.23299 5.91271C12.4551 2.2307 17.9771 0 24.0217 0C30.6558 0 36.6598 2.68682 41.0084 7.02947C42.9685 8.98781 44.591 11.2835 45.7814 13.8205ZM46.9077 26.1624C42.7082 30.636 38.5804 35.1775 34.3978 39.6681C32.4066 41.8027 30.5502 41.4276 29.4786 38.7153C28.3646 35.8928 27.3194 33.042 26.1847 30.2261C25.1131 27.5703 23.0718 27.3121 21.2692 29.5711C20.3401 30.7331 19.4609 31.9328 18.544 33.1051C16.7094 35.447 15.0048 35.3698 13.4909 32.8639C11.6335 29.7878 9.79507 26.6995 7.94435 23.6179C6.25587 20.8019 4.58531 17.9747 2.84872 15.1851C2.67044 14.8996 2.33274 14.5386 2.03089 14.3219C0.72633 17.2839 0 20.5578 0 23.9995C0 28.2093 1.08572 32.1674 2.99116 35.6082L0.9763 47.0218V47.0237H0.978187L12.4061 45.0107C15.8481 46.9143 19.808 47.9991 24.0226 47.9991C31.2454 47.9991 37.7239 44.8156 42.1281 39.7746C45.5154 35.8975 47.6746 30.9216 48.001 25.4518C47.5925 25.6459 47.1973 25.8533 46.9086 26.1614L46.9077 26.1624Z" fill="#168DE1"/>
</g>
<path d="M68.904 34H65.516L60.84 20H64.186L67.224 29.058L70.248 20H73.622L76.646 29.058L79.684 20H83.03L78.354 34H74.966L71.928 24.9L68.904 34ZM83.8536 20H87.2696V34H83.8536V20ZM85.5896 18.194C85.0856 18.194 84.6609 18.0307 84.3156 17.704C83.9703 17.368 83.7976 16.948 83.7976 16.444C83.7976 15.9493 83.9703 15.534 84.3156 15.198C84.6609 14.862 85.0809 14.694 85.5756 14.694C86.0703 14.694 86.4856 14.862 86.8216 15.198C87.1669 15.534 87.3396 15.9493 87.3396 16.444C87.3396 16.948 87.1716 17.368 86.8356 17.704C86.4996 18.0307 86.0843 18.194 85.5896 18.194ZM93.2861 34.252C92.5581 34.2053 91.8534 34.0607 91.1721 33.818C90.5001 33.566 89.9028 33.2253 89.3801 32.796C88.8574 32.3667 88.4561 31.8533 88.1761 31.256L91.0601 30.024C91.1721 30.2107 91.3541 30.4113 91.6061 30.626C91.8581 30.8313 92.1568 31.004 92.5021 31.144C92.8568 31.284 93.2441 31.354 93.6641 31.354C94.0188 31.354 94.3548 31.3073 94.6721 31.214C94.9988 31.1113 95.2601 30.9573 95.4561 30.752C95.6614 30.5467 95.7641 30.2807 95.7641 29.954C95.7641 29.6087 95.6428 29.3427 95.4001 29.156C95.1668 28.96 94.8681 28.8153 94.5041 28.722C94.1494 28.6193 93.8041 28.526 93.4681 28.442C92.5814 28.2647 91.7554 27.9893 90.9901 27.616C90.2341 27.2427 89.6228 26.762 89.1561 26.174C88.6988 25.5767 88.4701 24.858 88.4701 24.018C88.4701 23.094 88.7128 22.296 89.1981 21.624C89.6928 20.952 90.3321 20.434 91.1161 20.07C91.9094 19.706 92.7634 19.524 93.6781 19.524C94.7888 19.524 95.8061 19.7573 96.7301 20.224C97.6634 20.6813 98.4008 21.33 98.9421 22.17L96.2401 23.766C96.1094 23.542 95.9274 23.3367 95.6941 23.15C95.4608 22.954 95.1948 22.7953 94.8961 22.674C94.5974 22.5433 94.2848 22.4687 93.9581 22.45C93.5381 22.4313 93.1554 22.4687 92.8101 22.562C92.4648 22.6553 92.1848 22.814 91.9701 23.038C91.7648 23.262 91.6621 23.5607 91.6621 23.934C91.6621 24.2887 91.8021 24.5547 92.0821 24.732C92.3621 24.9 92.6981 25.0307 93.0901 25.124C93.4914 25.2173 93.8741 25.32 94.2381 25.432C95.0594 25.7027 95.8294 26.034 96.5481 26.426C97.2761 26.818 97.8594 27.2987 98.2981 27.868C98.7368 28.4373 98.9468 29.1187 98.9281 29.912C98.9281 30.8173 98.6574 31.6107 98.1161 32.292C97.5748 32.964 96.8748 33.4773 96.0161 33.832C95.1668 34.1867 94.2568 34.3267 93.2861 34.252ZM103.48 41H100.064V20H103.48V21.778C103.937 21.1433 104.497 20.63 105.16 20.238C105.832 19.8367 106.616 19.636 107.512 19.636C108.539 19.636 109.495 19.8273 110.382 20.21C111.269 20.5927 112.048 21.1247 112.72 21.806C113.401 22.478 113.929 23.2573 114.302 24.144C114.685 25.0307 114.876 25.9827 114.876 27C114.876 28.0173 114.685 28.974 114.302 29.87C113.929 30.766 113.401 31.5547 112.72 32.236C112.048 32.908 111.269 33.4353 110.382 33.818C109.495 34.2007 108.539 34.392 107.512 34.392C106.616 34.392 105.832 34.196 105.16 33.804C104.497 33.4027 103.937 32.8847 103.48 32.25V41ZM107.47 22.926C106.761 22.926 106.126 23.1127 105.566 23.486C105.006 23.85 104.567 24.34 104.25 24.956C103.933 25.572 103.774 26.2533 103.774 27C103.774 27.7467 103.933 28.4327 104.25 29.058C104.567 29.674 105.006 30.1687 105.566 30.542C106.126 30.906 106.761 31.088 107.47 31.088C108.189 31.088 108.847 30.906 109.444 30.542C110.041 30.178 110.517 29.688 110.872 29.072C111.227 28.4467 111.404 27.756 111.404 27C111.404 26.2533 111.227 25.572 110.872 24.956C110.517 24.34 110.041 23.85 109.444 23.486C108.856 23.1127 108.198 22.926 107.47 22.926ZM122.027 34.364C120.739 34.364 119.563 34.0327 118.499 33.37C117.444 32.7073 116.599 31.816 115.965 30.696C115.339 29.576 115.027 28.3393 115.027 26.986C115.027 25.9687 115.209 25.0167 115.573 24.13C115.937 23.234 116.436 22.45 117.071 21.778C117.715 21.0967 118.461 20.5647 119.311 20.182C120.16 19.7993 121.065 19.608 122.027 19.608C123.119 19.608 124.117 19.8413 125.023 20.308C125.937 20.7653 126.712 21.3953 127.347 22.198C127.981 23.0007 128.443 23.9153 128.733 24.942C129.022 25.9687 129.087 27.042 128.929 28.162H118.695C118.825 28.6847 119.04 29.156 119.339 29.576C119.637 29.9867 120.015 30.318 120.473 30.57C120.93 30.8127 121.448 30.9387 122.027 30.948C122.624 30.9573 123.165 30.8173 123.651 30.528C124.145 30.2293 124.556 29.828 124.883 29.324L128.369 30.136C127.799 31.3773 126.95 32.3947 125.821 33.188C124.691 33.972 123.427 34.364 122.027 34.364ZM118.583 25.6H125.471C125.368 25.04 125.149 24.536 124.813 24.088C124.486 23.6307 124.08 23.2667 123.595 22.996C123.109 22.7253 122.587 22.59 122.027 22.59C121.467 22.59 120.949 22.7253 120.473 22.996C119.997 23.2573 119.591 23.6167 119.255 24.074C118.928 24.522 118.704 25.0307 118.583 25.6ZM129.96 34L129.946 20H133.362L133.376 21.246C133.852 20.742 134.422 20.3453 135.084 20.056C135.747 19.7573 136.461 19.608 137.226 19.608C137.74 19.608 138.253 19.6827 138.766 19.832L137.422 23.276C137.068 23.136 136.713 23.066 136.358 23.066C135.808 23.066 135.304 23.2013 134.846 23.472C134.398 23.7333 134.039 24.0927 133.768 24.55C133.507 24.998 133.376 25.4973 133.376 26.048V34H129.96Z" fill="#168DE1"/>
<defs>
<clipPath id="clip0_28_3524">
<rect width="48" height="48" fill="white"/>
</clipPath>
</defs>
</svg>
